<svg xmlns="http://www.w3.org/2000/svg" viewBox="0 0 512 512" width="512" height="512">
  <!-- Sort baggrundscirkel -->
  <circle cx="256" cy="256" r="256" fill="#0d1117"/>
  <!-- Bootstrap Icons: music-note-beamed, centreret og skaleret -->
  <!-- Originalt viewBox 0 0 16 16, skaleret ~17x og centreret i 512x512 -->
  <g transform="translate(120, 120) scale(17)">
    <path fill="#e85d2e" d="M6 13c0 1.105-1.12 2-2.5 2S1 14.105 1 13s1.12-2 2.5-2 2.5.896 2.5 2zm9-2c0 1.105-1.12 2-2.5 2s-2.5-.895-2.5-2 1.12-2 2.5-2 2.5.895 2.5 2z"/>
    <path fill="#e85d2e" fill-rule="evenodd" d="M14 11V2h1v9h-1zM6 3v10H5V3h1z"/>
    <path fill="#e85d2e" d="M5 2.905a1 1 0 0 1 .9-.995l8-.8a1 1 0 0 1 1.1.995V3L5 4V2.905z"/>
  </g>
</svg>
