<svg xmlns="http://www.w3.org/2000/svg" viewBox="0 0 192 192" width="192" height="192">
  <!-- Sort baggrundscirkel -->
  <circle cx="96" cy="96" r="96" fill="#0d1117"/>
  <!-- Bootstrap Icons: music-note-beamed, centreret og skaleret -->
  <!-- Originalt viewBox 0 0 16 16, skaleret ~8x og centreret i 192x192 -->
  <g transform="translate(44, 40) scale(6.5)">
    <path fill="#e85d2e" d="M6 13c0 1.105-1.12 2-2.5 2S1 14.105 1 13s1.12-2 2.5-2 2.5.896 2.5 2zm9-2c0 1.105-1.12 2-2.5 2s-2.5-.895-2.5-2 1.12-2 2.5-2 2.5.895 2.5 2z"/>
    <path fill="#e85d2e" fill-rule="evenodd" d="M14 11V2h1v9h-1zM6 3v10H5V3h1z"/>
    <path fill="#e85d2e" d="M5 2.905a1 1 0 0 1 .9-.995l8-.8a1 1 0 0 1 1.1.995V3L5 4V2.905z"/>
  </g>
</svg>
